<svg width="16" height="16" viewBox="0 0 16 16" fill="none" xmlns="http://www.w3.org/2000/svg">
<path fill-rule="evenodd" clip-rule="evenodd" d="M0 8C0 12.4183 3.58172 16 8 16C12.4183 16 16 12.4183 16 8C16 3.58172 12.4183 0 8 0C3.58172 0 0 3.58172 0 8ZM14 8C14 11.3137 11.3137 14 8 14C4.68629 14 2 11.3137 2 8C2 4.68629 4.68629 2 8 2C11.3137 2 14 4.68629 14 8ZM7 7.66667C7 7.11438 7.44772 6.66667 8 6.66667C8.55229 6.66667 9 7.11438 9 7.66667V11.3333C9 11.8856 8.55229 12.3333 8 12.3333C7.44772 12.3333 7 11.8856 7 11.3333V7.66667ZM8 3.66667C7.44772 3.66667 7 4.11438 7 4.66667C7 5.21895 7.44772 5.66667 8 5.66667C8.55229 5.66667 9 5.21895 9 4.66667C9 4.11438 8.55229 3.66667 8 3.66667Z" fill="#5168EC"/>
</svg>
