<svg width="16" height="16" viewBox="0 0 16 16" fill="none" xmlns="http://www.w3.org/2000/svg">
<path fill-rule="evenodd" clip-rule="evenodd" d="M3.84492 15.6367L8.00002 13.7199L12.1551 15.6367C12.5052 15.7982 12.8987 15.5194 12.8623 15.1355L12.4091 10.3517L15.4691 6.73897C15.7113 6.45308 15.5646 6.01227 15.1994 5.92847L10.725 4.90167L8.43701 0.786673C8.24646 0.443972 7.75357 0.443973 7.56302 0.786674L5.27503 4.90167L0.8006 5.92847C0.435439 6.01227 0.288755 6.45308 0.530902 6.73896L3.59089 10.3517L3.13771 15.1355C3.10135 15.5194 3.4948 15.7982 3.84492 15.6367ZM7.16225 11.9038L5.37469 12.7285L5.58197 10.5403C5.63277 10.0041 5.46514 9.47001 5.11702 9.05901L3.64969 7.32664L5.72236 6.851C6.27483 6.72422 6.74755 6.36897 7.023 5.87357L8.00002 4.11639L8.97703 5.87357C9.25248 6.36897 9.72521 6.72422 10.2777 6.851L12.3503 7.32664L10.883 9.05901C10.5349 9.47001 10.3673 10.0041 10.4181 10.5403L10.6253 12.7285L8.83778 11.9038C8.30619 11.6586 7.69384 11.6586 7.16225 11.9038Z" fill="#91939D"/>
</svg>
